<?xml version="1.0" encoding="UTF-8"?>
<svg id="Layer_2_copy" data-name="Layer 2 copy" xmlns="http://www.w3.org/2000/svg" viewBox="0 0 1044.43 473.38">
  <defs>
    <style>
      .cls-1 {
        fill: #fff;
        font-family: Bauhaus93, 'Bauhaus 93';
        font-size: 51.68px;
        letter-spacing: -.03em;
      }

      .cls-2 {
        fill: #0e2a1c;
      }
    </style>
  </defs>
  <path class="cls-2" d="M195.18,4.76v38.92h-68.83v147.28h-57.2V43.68H0V4.76h195.18Z"/>
  <path class="cls-2" d="M389.39,157.36c0,15.12,1.94,22.96,4.2,33.6h-57.52c-2.58-7.56-3.88-18.2-3.88-33.6v-7.56c0-17.92-13.25-26.32-31.67-26.32h-39.1v67.48h-57.52V4.76h118.92c48.47,0,72.06,21.56,72.06,51.52,0,26.6-19.71,44.52-46.53,49.28,22.3,4.2,41.04,14,41.04,41.44v10.36ZM307.64,88.2c19.71,0,27.79-7.84,27.79-23.8,0-14.56-8.4-21.84-27.47-21.84h-46.53v45.64h46.21Z"/>
  <path class="cls-2" d="M575.53,190.96l-13.9-35h-92.42l-13.9,35h-56.87L471.8,4.76h87.57l73.36,186.2h-57.2ZM483.75,118.72h63.34l-31.67-79.8-31.67,79.8Z"/>
  <path class="cls-2" d="M682.17,130.48c1.62,15.4,13.25,29.4,43.3,29.4,27.47,0,37.81-8.4,37.81-21.28s-8.4-18.48-24.56-20.44l-46.86-4.48c-38.78-3.92-61.08-22.96-61.08-54.6,0-35,30.38-59.08,92.42-59.08,66.25,0,92.74,27.44,95.65,60.48h-56.23c-2.26-14.84-15.19-24.64-39.42-24.64-21.97,0-34.9,7.56-34.9,19.88,0,9.52,6.46,16.52,22.94,18.2l41.04,3.64c47.18,3.92,68.51,23.24,68.51,56.84,0,36.68-26.5,61.32-96.3,61.32s-95.33-31.92-97.59-65.24h55.26Z"/>
  <path class="cls-2" d="M987.55,4.76h56.88v186.2h-56.88v-75.32h-89.84v75.32h-56.87V4.76h56.87v72.52h89.84V4.76Z"/>
  <path class="cls-2" d="M195.18,247.76v38.92h-68.83v147.28h-57.2v-147.28H0v-38.92h195.18Z"/>
  <path class="cls-2" d="M338.66,433.96l-13.9-35h-92.42l-13.9,35h-56.87l73.35-186.2h87.57l73.36,186.2h-57.2ZM246.89,361.72h63.34l-31.67-79.8-31.67,79.8Z"/>
  <path class="cls-2" d="M462.11,395.04h96.62v38.92h-154.14v-186.2h57.52v147.28Z"/>
  <path class="cls-2" d="M663.76,363.12l-31.99,30.52v40.32h-56.87v-186.2h56.87v82.32l78.2-82.32h73.68l-82.08,78.96"/>
  <path class="cls-2" d="M937.18,363.38h-199.53c-16.24,0-30.84,7.05-40.91,18.24l-33.83-5.64,22.64,60.25.12.11c7.45,21.55,27.9,37.03,51.98,37.03h199.53c30.38,0,55-24.62,55-55h0c0-30.38-24.62-55-55-55Z"/>
  <text class="cls-1" transform="translate(706.06 435.49) scale(1.23 1)"><tspan x="0" y="0">with Rumi</tspan></text>
</svg>