<svg width="151" height="41" viewBox="0 0 151 41" fill="none" xmlns="http://www.w3.org/2000/svg">
<path d="M2.14915 33V8.27273H18.5213V12.5831H7.37713V18.4751H17.4347V22.7855H7.37713V33H2.14915ZM27.0847 8.27273V33H21.9412V8.27273H27.0847ZM34.3803 39.9545C33.7283 39.9545 33.1166 39.9022 32.5451 39.7976C31.9817 39.701 31.5148 39.5762 31.1445 39.4233L32.3036 35.5838C32.9073 35.7689 33.4506 35.8696 33.9336 35.8857C34.4246 35.9018 34.8472 35.7891 35.2013 35.5476C35.5636 35.3061 35.8574 34.8956 36.0827 34.3161L36.3846 33.5312L29.7319 14.4545H35.141L38.9805 28.0739H39.1737L43.0494 14.4545H48.4947L41.2866 35.0043C40.9405 36.0024 40.4696 36.8717 39.8739 37.6122C39.2863 38.3608 38.5418 38.9363 37.6403 39.3388C36.7388 39.7493 35.6521 39.9545 34.3803 39.9545ZM51.2234 33V8.27273H56.4513V28.6896H67.0522V33H51.2234ZM78.8695 33.3622C76.9618 33.3622 75.3198 32.9759 73.9434 32.2031C72.575 31.4223 71.5205 30.3196 70.78 28.8949C70.0395 27.4621 69.6692 25.7678 69.6692 23.8118C69.6692 21.9041 70.0395 20.2299 70.78 18.7891C71.5205 17.3482 72.5629 16.2254 73.9071 15.4205C75.2594 14.6155 76.8451 14.2131 78.6642 14.2131C79.8877 14.2131 81.0267 14.4103 82.0811 14.8047C83.1436 15.1911 84.0693 15.7746 84.8581 16.5554C85.655 17.3362 86.2748 18.3182 86.7175 19.5014C87.1602 20.6766 87.3816 22.053 87.3816 23.6307V25.0433H71.7218V21.8558H82.54C82.54 21.1153 82.379 20.4593 82.057 19.8878C81.735 19.3163 81.2883 18.8696 80.7168 18.5476C80.1534 18.2176 79.4973 18.0526 78.7488 18.0526C77.968 18.0526 77.2757 18.2337 76.6721 18.5959C76.0764 18.95 75.6096 19.429 75.2715 20.0327C74.9334 20.6283 74.7604 21.2924 74.7523 22.0249V25.0554C74.7523 25.973 74.9213 26.7659 75.2594 27.4339C75.6055 28.102 76.0925 28.6172 76.7203 28.9794C77.3482 29.3416 78.0927 29.5227 78.954 29.5227C79.5255 29.5227 80.0487 29.4422 80.5236 29.2812C80.9985 29.1203 81.405 28.8788 81.7431 28.5568C82.0811 28.2348 82.3387 27.8404 82.5158 27.3736L87.2729 27.6875C87.0314 28.8305 86.5364 29.8286 85.7878 30.6818C85.0473 31.527 84.0894 32.187 82.9142 32.6619C81.7471 33.1288 80.3989 33.3622 78.8695 33.3622ZM95.8816 22.2784V33H90.7381V14.4545H95.6401V17.7266H95.8574C96.2679 16.648 96.9561 15.7947 97.9221 15.1669C98.888 14.531 100.059 14.2131 101.436 14.2131C102.723 14.2131 103.846 14.4948 104.804 15.0582C105.762 15.6217 106.507 16.4266 107.038 17.473C107.569 18.5114 107.835 19.7509 107.835 21.1918V33H102.691V22.1094C102.699 20.9744 102.41 20.089 101.822 19.4531C101.234 18.8092 100.425 18.4872 99.3951 18.4872C98.7028 18.4872 98.0911 18.6361 97.5598 18.9339C97.0366 19.2318 96.6261 19.6664 96.3283 20.2379C96.0385 20.8014 95.8896 21.4815 95.8816 22.2784ZM127.319 19.7429L122.61 20.0327C122.53 19.6302 122.357 19.268 122.091 18.946C121.825 18.616 121.475 18.3544 121.04 18.1612C120.614 17.96 120.103 17.8594 119.507 17.8594C118.71 17.8594 118.038 18.0284 117.491 18.3665C116.943 18.6965 116.67 19.1392 116.67 19.6946C116.67 20.1373 116.847 20.5116 117.201 20.8175C117.555 21.1233 118.163 21.3688 119.024 21.554L122.381 22.2301C124.184 22.6004 125.528 23.196 126.413 24.017C127.299 24.8381 127.741 25.9167 127.741 27.2528C127.741 28.4683 127.383 29.5348 126.667 30.4524C125.959 31.37 124.985 32.0864 123.745 32.6016C122.513 33.1087 121.093 33.3622 119.483 33.3622C117.028 33.3622 115.072 32.8511 113.615 31.8288C112.166 30.7985 111.317 29.398 111.067 27.6271L116.126 27.3615C116.279 28.1101 116.65 28.6816 117.237 29.076C117.825 29.4624 118.577 29.6555 119.495 29.6555C120.397 29.6555 121.121 29.4825 121.668 29.1364C122.224 28.7822 122.505 28.3274 122.513 27.772C122.505 27.3052 122.308 26.9228 121.922 26.625C121.536 26.3191 120.94 26.0857 120.135 25.9247L116.923 25.2848C115.112 24.9226 113.764 24.2947 112.879 23.4013C112.001 22.5078 111.562 21.3688 111.562 19.9844C111.562 18.7931 111.884 17.7668 112.528 16.9055C113.18 16.0443 114.094 15.3802 115.269 14.9134C116.452 14.4465 117.837 14.2131 119.423 14.2131C121.765 14.2131 123.608 14.7081 124.952 15.6982C126.305 16.6882 127.094 18.0365 127.319 19.7429Z" fill="#111816"/>
<path d="M141.3 28.84C141.153 27.9733 140.767 27.04 140.14 26.04C139.513 25.0267 138.62 24.0867 137.46 23.22C136.313 22.3533 135.167 21.8 134.02 21.56V20.72C135.153 20.4533 136.24 19.96 137.28 19.24C138.333 18.5067 139.213 17.6267 139.92 16.6C140.64 15.5467 141.1 14.5067 141.3 13.48H142.14C142.26 14.1467 142.5 14.8333 142.86 15.54C143.22 16.2333 143.68 16.9 144.24 17.54C144.813 18.1667 145.453 18.7333 146.16 19.24C147.213 19.9867 148.287 20.48 149.38 20.72V21.56C148.647 21.7067 147.887 22.0067 147.1 22.46C146.327 22.9133 145.607 23.4533 144.94 24.08C144.273 24.6933 143.727 25.34 143.3 26.02C142.673 27.02 142.287 27.96 142.14 28.84H141.3Z" fill="#5257E8"/>
</svg>
